<mxfile host="app.diagrams.net" agent="Mozilla/5.0 (Windows NT 10.0; Win64; x64) AppleWebKit/537.36 (KHTML, like Gecko) Chrome/123.0.0.0 Safari/537.36" version="24.7.12">
  <diagram name="第 1 页" id="CQfq_BovxXiFQtAZaCbx">
    <mxGraphModel dx="724" dy="390" grid="1" gridSize="10" guides="1" tooltips="1" connect="1" arrows="1" fold="1" page="1" pageScale="1" pageWidth="827" pageHeight="1169" math="0" shadow="0">
      <root>
        <mxCell id="0" />
        <mxCell id="1" parent="0" />
        <mxCell id="ytrkI1-n0MJOcPDR4_dU-1" value="大模型" style="rhombus;whiteSpace=wrap;html=1;" vertex="1" parent="1">
          <mxGeometry x="334" y="80" width="106" height="80" as="geometry" />
        </mxCell>
        <mxCell id="ytrkI1-n0MJOcPDR4_dU-8" style="edgeStyle=orthogonalEdgeStyle;rounded=0;orthogonalLoop=1;jettySize=auto;html=1;exitX=0.5;exitY=1;exitDx=0;exitDy=0;fillColor=#009900;strokeColor=#009900;" edge="1" parent="1" source="ytrkI1-n0MJOcPDR4_dU-6">
          <mxGeometry relative="1" as="geometry">
            <mxPoint x="390" y="310" as="targetPoint" />
            <mxPoint x="390.5" y="260" as="sourcePoint" />
          </mxGeometry>
        </mxCell>
        <mxCell id="ytrkI1-n0MJOcPDR4_dU-9" value="&lt;font color=&quot;#048106&quot;&gt;验证结果正确&lt;/font&gt;" style="edgeLabel;html=1;align=center;verticalAlign=middle;resizable=0;points=[];fillColor=#009900;" vertex="1" connectable="0" parent="ytrkI1-n0MJOcPDR4_dU-8">
          <mxGeometry x="-0.2967" relative="1" as="geometry">
            <mxPoint as="offset" />
          </mxGeometry>
        </mxCell>
        <mxCell id="ytrkI1-n0MJOcPDR4_dU-6" value="召回结果验证" style="rounded=0;whiteSpace=wrap;html=1;" vertex="1" parent="1">
          <mxGeometry x="343" y="210" width="97" height="40" as="geometry" />
        </mxCell>
        <mxCell id="ytrkI1-n0MJOcPDR4_dU-14" style="edgeStyle=orthogonalEdgeStyle;rounded=0;orthogonalLoop=1;jettySize=auto;html=1;exitX=0.5;exitY=0;exitDx=0;exitDy=0;entryX=0.5;entryY=0;entryDx=0;entryDy=0;strokeColor=#1fa305;" edge="1" parent="1" source="ytrkI1-n0MJOcPDR4_dU-13" target="ytrkI1-n0MJOcPDR4_dU-6">
          <mxGeometry relative="1" as="geometry" />
        </mxCell>
        <mxCell id="ytrkI1-n0MJOcPDR4_dU-15" value="&lt;font color=&quot;#08c205&quot;&gt;通过算法逻辑修复&lt;/font&gt;" style="edgeLabel;html=1;align=center;verticalAlign=middle;resizable=0;points=[];" vertex="1" connectable="0" parent="ytrkI1-n0MJOcPDR4_dU-14">
          <mxGeometry x="0.0173" relative="1" as="geometry">
            <mxPoint as="offset" />
          </mxGeometry>
        </mxCell>
        <mxCell id="ytrkI1-n0MJOcPDR4_dU-19" style="edgeStyle=orthogonalEdgeStyle;rounded=0;orthogonalLoop=1;jettySize=auto;html=1;exitX=1;exitY=0.5;exitDx=0;exitDy=0;entryX=1;entryY=0.5;entryDx=0;entryDy=0;strokeColor=#FF8000;" edge="1" parent="1" source="ytrkI1-n0MJOcPDR4_dU-13" target="ytrkI1-n0MJOcPDR4_dU-1">
          <mxGeometry relative="1" as="geometry" />
        </mxCell>
        <mxCell id="ytrkI1-n0MJOcPDR4_dU-20" value="&lt;font color=&quot;#ff8000&quot;&gt;复杂问题重新提问大模型(其他大模型)&lt;/font&gt;" style="edgeLabel;html=1;align=center;verticalAlign=middle;resizable=0;points=[];" vertex="1" connectable="0" parent="ytrkI1-n0MJOcPDR4_dU-19">
          <mxGeometry x="0.3385" y="-1" relative="1" as="geometry">
            <mxPoint as="offset" />
          </mxGeometry>
        </mxCell>
        <mxCell id="ytrkI1-n0MJOcPDR4_dU-13" value="简单SQL语法问题" style="rounded=0;whiteSpace=wrap;html=1;" vertex="1" parent="1">
          <mxGeometry x="580" y="209" width="110" height="50" as="geometry" />
        </mxCell>
        <mxCell id="ytrkI1-n0MJOcPDR4_dU-22" value="查询并返回结果" style="rounded=0;whiteSpace=wrap;html=1;" vertex="1" parent="1">
          <mxGeometry x="340.5" y="310" width="100" height="50" as="geometry" />
        </mxCell>
        <mxCell id="ytrkI1-n0MJOcPDR4_dU-24" style="edgeStyle=orthogonalEdgeStyle;rounded=0;orthogonalLoop=1;jettySize=auto;html=1;exitX=0.5;exitY=1;exitDx=0;exitDy=0;entryX=0.456;entryY=0;entryDx=0;entryDy=0;entryPerimeter=0;" edge="1" parent="1" source="ytrkI1-n0MJOcPDR4_dU-1" target="ytrkI1-n0MJOcPDR4_dU-6">
          <mxGeometry relative="1" as="geometry" />
        </mxCell>
        <mxCell id="ytrkI1-n0MJOcPDR4_dU-28" style="edgeStyle=orthogonalEdgeStyle;rounded=0;orthogonalLoop=1;jettySize=auto;html=1;exitX=1;exitY=0.5;exitDx=0;exitDy=0;strokeColor=#FF0000;" edge="1" parent="1" source="ytrkI1-n0MJOcPDR4_dU-6">
          <mxGeometry relative="1" as="geometry">
            <mxPoint x="580" y="230" as="targetPoint" />
          </mxGeometry>
        </mxCell>
        <mxCell id="ytrkI1-n0MJOcPDR4_dU-30" value="&lt;font color=&quot;#df0707&quot;&gt;验证结果错误&lt;/font&gt;" style="edgeLabel;html=1;align=center;verticalAlign=middle;resizable=0;points=[];" vertex="1" connectable="0" parent="ytrkI1-n0MJOcPDR4_dU-28">
          <mxGeometry x="-0.026" y="-2" relative="1" as="geometry">
            <mxPoint as="offset" />
          </mxGeometry>
        </mxCell>
      </root>
    </mxGraphModel>
  </diagram>
</mxfile>
